<svg width="22" height="21" viewBox="0 0 22 21" fill="none" xmlns="http://www.w3.org/2000/svg">
<path d="M21.9409 3H18.9409V0H21.9409V3ZM18.9409 6H15.9409V3H18.9409V6ZM15.9409 9H12.9409V6H15.9409V9ZM12.9409 12H9.94086V9H12.9409V12ZM9.94086 15H6.94086V12H9.94086V15ZM6.94086 18H3.94086V15H6.94086V18ZM3.94086 21H0.940857V18H3.94086V21Z" fill="currentColor"/>
<path d="M0.940825 3H3.94083V0H0.940825V3ZM3.94083 6H6.94083V3H3.94083V6ZM6.94083 9H9.94083V6H6.94083V9ZM9.94083 12H12.9408V9H9.94083V12ZM12.9408 15H15.9408V12H12.9408V15ZM15.9408 18H18.9408V15H15.9408V18ZM18.9408 21H21.9408V18H18.9408V21Z" fill="currentColor"/>
</svg>
