<svg width="29" height="21" viewBox="0 0 29 21" fill="none" xmlns="http://www.w3.org/2000/svg">
<path d="M6.99434 1.07123L4.45893 0.499862L3.88756 3.03528L6.42297 3.60665L6.56581 2.9728L9.10123 3.54417L9.24407 2.91031L11.7795 3.48168L11.9223 2.84783L14.4578 3.4192L14.6006 2.78535L17.136 3.35672L17.2789 2.72287L19.8143 3.29424L19.9571 2.66038L22.4925 3.23175L22.6354 2.5979L25.1708 3.16927L25.3136 2.53542L27.849 3.10679L28.4204 0.571371L25.885 0L25.7422 0.633854L23.2067 0.0624831L23.0639 0.696337L20.5285 0.124965L20.3856 0.75882L17.8502 0.187448L17.7074 0.821303L15.172 0.249931L15.0291 0.883785L12.4937 0.312414L12.3509 0.946268L9.81545 0.374897L9.6726 1.00875L7.13719 0.43738L6.99434 1.07123Z" fill="currentColor"/>
<path d="M5.05057 9.6966L2.51515 9.12523L1.94378 11.6606L4.47919 12.232L4.62204 11.5982L7.15745 12.1695L7.3003 11.5357L9.83571 12.1071L9.97856 11.4732L12.514 12.0446L12.6568 11.4107L15.1922 11.9821L15.3351 11.3482L17.8705 11.9196L18.0133 11.2857L20.5487 11.8571L20.6916 11.2233L23.227 11.7946L23.3699 11.1608L25.9053 11.7322L26.4766 9.19674L23.9412 8.62537L23.7984 9.25922L21.263 8.68785L21.1201 9.3217L18.5847 8.75033L18.4419 9.38419L15.9064 8.81282L15.7636 9.44667L13.2282 8.8753L13.0853 9.50915L10.5499 8.93778L10.4071 9.57164L7.87167 9.00026L7.72882 9.63412L5.19341 9.06275L5.05057 9.6966Z" fill="currentColor"/>
<path d="M3.10679 18.322L0.571371 17.7506L0 20.286L2.53542 20.8574L2.67826 20.2235L5.21367 20.7949L5.35652 20.161L7.89193 20.7324L8.03478 20.0986L10.5702 20.6699L10.713 20.0361L13.2485 20.6075L13.3913 19.9736L15.9267 20.545L16.0696 19.9111L18.605 20.4825L18.7478 19.8486L21.2832 20.42L21.4261 19.7862L23.9615 20.3575L24.5329 17.8221L21.9974 17.2507L21.8546 17.8846L19.3192 17.3132L19.1763 17.9471L16.6409 17.3757L16.4981 18.0096L13.9627 17.4382L13.8198 18.072L11.2844 17.5007L11.1416 18.1345L8.60615 17.5631L8.46331 18.197L5.92789 17.6256L5.78505 18.2595L3.24963 17.6881L3.10679 18.322Z" fill="currentColor"/>
</svg>
